<svg width="15" height="15" viewBox="0 0 15 15" fill="none" xmlns="http://www.w3.org/2000/svg">
<path d="M5.31316 14.8385C6.31724 14.8385 7.13121 14.0246 7.13121 13.0205C7.13121 12.0164 6.31724 11.2024 5.31316 11.2024C4.30908 11.2024 3.49512 12.0164 3.49512 13.0205C3.49512 14.0246 4.30908 14.8385 5.31316 14.8385Z" fill="white"/>
<path d="M11.1377 11.1848C10.1287 11.0855 9.23032 11.8229 9.13103 12.8319C9.03174 13.8408 9.76915 14.7392 10.7781 14.8385C10.8977 14.8503 11.0181 14.8503 11.1377 14.8385C12.1467 14.7392 12.8841 13.8408 12.7848 12.8319C12.699 11.9602 12.0093 11.2705 11.1377 11.1848Z" fill="white"/>
<path d="M14.8798 4.2656C14.7894 4.13035 14.6364 4.05051 14.4738 4.05378H12.4616V4.01848C12.4617 1.88358 10.7312 0.152787 8.59625 0.152649C6.46139 0.152511 4.73059 1.88306 4.73045 4.01797C4.73045 4.01814 4.73045 4.01831 4.73045 4.01848V4.05378H3.23012L2.71825 1.72386C2.6614 1.48685 2.4501 1.31927 2.20637 1.31789H0V2.37694H1.78275L3.42428 9.9139C3.46762 10.1617 3.68464 10.3413 3.93616 10.3375H13.1676C13.4113 10.3361 13.6226 10.1686 13.6795 9.93155L14.9857 4.70687C15.024 4.55129 14.9845 4.38681 14.8798 4.2656ZM8.59601 6.82498C7.04604 6.82498 5.78951 5.56846 5.78951 4.01848C5.78951 2.46851 7.04604 1.21198 8.59601 1.21198C10.146 1.21198 11.4025 2.46851 11.4025 4.01848C11.3929 5.56446 10.142 6.81533 8.59601 6.82498Z" fill="white"/>
<path d="M8.17218 4.07145L7.20137 3.083L6.44238 3.82434L7.78386 5.18346C7.88163 5.28323 8.01483 5.34032 8.15453 5.34232C8.29239 5.34908 8.42677 5.29788 8.5252 5.20111L10.7492 3.10065L10.0255 2.32401L8.17218 4.07145Z" fill="white"/>
</svg>
