<svg width="19" height="25" viewBox="0 0 19 25" fill="none" xmlns="http://www.w3.org/2000/svg">
<path d="M16.3779 25H2.62252C1.40064 25 0.439915 23.9504 0.547259 22.7335L1.81564 8.35853C1.91122 7.27524 2.80335 6.45832 3.8909 6.45832H5.17731V4.3229C5.17731 1.9392 7.11653 -1.52588e-05 9.50023 -1.52588e-05C11.8839 -1.52588e-05 13.8231 1.9392 13.8231 4.3229V6.45832H15.1096C15.3397 6.45832 15.5262 6.64488 15.5262 6.87498C15.5262 7.10509 15.3397 7.29165 15.1096 7.29165H13.8231V9.16665C13.8231 9.39676 13.6366 9.58332 13.4065 9.58332C13.1764 9.58332 12.9898 9.39676 12.9898 9.16665V7.29165H7.52106C7.29096 7.29165 7.10439 7.10509 7.10439 6.87498C7.10439 6.64488 7.29096 6.45832 7.52106 6.45832H12.9898V4.3229C12.9898 2.39873 11.4244 0.833318 9.50023 0.833318C7.57606 0.833318 6.01064 2.39873 6.01064 4.3229V9.16665C6.01064 9.39676 5.82408 9.58332 5.59398 9.58332C5.36387 9.58332 5.17731 9.39676 5.17731 9.16665V7.29165H3.8909C3.2384 7.29165 2.70309 7.78181 2.64575 8.43181L1.37736 22.8068C1.31273 23.5392 1.88814 24.1667 2.62252 24.1667H16.3779C17.1132 24.1667 17.6877 23.5383 17.6231 22.8068L16.3547 8.43181C16.3345 8.20259 16.5039 8.00035 16.7331 7.98014C16.9623 7.96009 17.1646 8.12936 17.1848 8.35858L18.4532 22.7336C18.5606 23.9507 17.5996 25 16.3779 25ZM7.10439 21.4062H4.08356C3.85346 21.4062 3.66689 21.5928 3.66689 21.8229C3.66689 22.053 3.85346 22.2396 4.08356 22.2396H7.10439C7.3345 22.2396 7.52106 22.053 7.52106 21.8229C7.52106 21.5928 7.3345 21.4062 7.10439 21.4062ZM7.10439 19.3229H4.08356C3.85346 19.3229 3.66689 19.5095 3.66689 19.7396C3.66689 19.9697 3.85346 20.1562 4.08356 20.1562H7.10439C7.3345 20.1562 7.52106 19.9697 7.52106 19.7396C7.52106 19.5095 7.3345 19.3229 7.10439 19.3229Z" fill="black"/>
</svg>
