<svg width="24" height="24" viewBox="0 0 24 24" fill="none" xmlns="http://www.w3.org/2000/svg">
<g clip-path="url(#clip0)">
<path d="M12.6629 11.9992L17.8627 17.199C18.0458 17.3821 18.0458 17.6789 17.8627 17.862C17.6796 18.045 17.3828 18.045 17.1998 17.862L12 12.6622L6.80023 17.862C6.61716 18.045 6.32035 18.045 6.1373 17.862C5.95426 17.6789 5.95423 17.3821 6.1373 17.199L11.3371 11.9993L6.1373 6.79948C5.95423 6.61641 5.95423 6.3196 6.1373 6.13656C6.22883 6.04503 6.3488 5.99928 6.46878 5.99928C6.58875 5.99928 6.70871 6.04503 6.80025 6.13656L12 11.3363L17.1998 6.13656C17.2913 6.04503 17.4113 5.99928 17.5312 5.99928C17.6512 5.99928 17.7712 6.04503 17.8627 6.13656C18.0458 6.31963 18.0458 6.61644 17.8627 6.79948L12.6629 11.9992Z" fill="#898989"/>
</g>
<circle cx="12" cy="12" r="11.5" stroke="#898989"/>
<defs>
<clipPath id="clip0">
<rect width="12" height="12" fill="white" transform="matrix(1 0 0 -1 6 18)"/>
</clipPath>
</defs>
</svg>
